<svg xmlns="http://www.w3.org/2000/svg" version="1.1" id="Layer_1" x="0" y="0" width="791.4" height="250" viewBox="0 0 791.4 250" xml:space="preserve"><g id="g3736" transform="translate(-217.292 -271.474)"><g id="g3738" fill="#00578e"><g id="g3740"><path d="M511.096 406.949h4.146v6.299c3.314 3.971 6.541 5.717 10.02 5.717 4.641 0 8.285-3.482 8.285-7.951 0-8.367-11.512-10.029-18.217-16.738-3.234-3.229-4.477-6.633-4.477-10.029 0-6.535 5.469-12.836 14.086-12.836 3.563 0 6.791.668 9.609 2.484v-2.652h4.137v13.506h-4.137v-5.391c-2.078-2.639-5.221-4.221-8.617-4.221-5.549 0-7.953 3.314-7.953 7.125 0 7.785 11.35 8.945 18.473 16.07 3.145 3.154 4.219 5.967 4.219 10.029 0 8.451-5.963 14.334-14.908 14.334-3.809 0-6.791-1.162-10.52-3.479v3.646h-4.146v-15.913z" id="path3742"/><path d="M555.174 398.414c.502-5.881 2.402-8.777 6.955-8.777 4.389 0 7.125 3.146 7.787 8.777h-14.742zm22.869 3.397c-1.328-10.02-6.801-15.564-15.412-15.564-9.527 0-15.742 6.785-15.742 17.311 0 9.691 6.383 19.307 18.145 19.307 4.727 0 7.367-.92 13.01-4.398l.574-3.73c-4.139 2.652-7.953 3.982-11.512 3.982-7.379 0-11.932-6.961-11.932-16.906h22.869z" id="path3744"/><path d="M611.998 397.17h-2.402c-.91-5.043-4.557-7.533-8.285-7.533-5.549 0-9.277 4.055-9.277 12.924 0 10.188 3.896 15.662 11.104 15.662 5.631 0 8.945-3.813 9.768-3.813.668 0 1.162 1.492 1.162 2.066 0 1.41-5.715 6.387-13.498 6.387-9.695 0-17.07-8.287-17.07-19.143 0-10.197 6.873-17.475 16.57-17.475 2.904 0 5.053.492 8.867 2.148l.66-2.066h2.402v10.843z" id="path3746"/><path d="M617.91 387.238h13.844v23.857c0 4.475 2.393 7.127 6.291 7.127 2.32 0 5.307-1.242 8.457-3.563v-24.027h-6.137v-3.395h13.791v31.227h6.24v3.393h-13.895v-4.133c-4.311 3.646-8.377 5.139-12.441 5.139-6.123 0-9.932-3.482-9.932-10.607v-21.623h-6.219v-3.395z" id="path3748"/><path d="M664.494 418.465h6.207v-27.832h-6.207v-3.395h13.83v5.793h.17c4.137-5.139 6.217-6.785 8.451-6.785 2.066 0 3.889.992 5.883 3.309-.668 3.477-1.744 6.293-3.154 8.535-1.984-3.646-3.145-4.889-5.465-4.889-2.238 0-3.98 1.484-5.885 4.137v21.127h6.219v3.393h-20.049v-3.393z" id="path3750"/><path d="M698.275 418.465h6.049v-27.832h-6.049v-3.395h13.664v31.227h5.891v3.393h-19.555v-3.393zm13.69-41.721c0 2.49-2.084 4.578-4.582 4.578-2.488 0-4.584-2.088-4.584-4.578 0-2.494 2.096-4.584 4.584-4.584 2.498 0 4.582 2.09 4.582 4.584z" id="path3752"/><path d="M721.465 390.633l12.434-12.84v9.445h9.695v3.395h-9.695v20.049c0 5.463 1.494 8.035 4.639 8.035 3.314 0 4.971-2.654 5.799-2.654.498 0 .824.668.824 1.074 0 .918-3.061 5.727-9.109 5.727-6.301 0-9.775-4.066-9.775-11.525v-20.705h-4.812z" id="path3754"/><path d="M746.904 387.238h16.811v3.395h-4.385l8.281 22.201 8.617-22.201h-4.061v-3.395h11.596v3.395h-4.139l-19.703 50.105h-6.457l9.176-20.365-11.18-29.74h-4.557v-3.395z" id="path3756"/></g><g id="g3758"><path d="M534.468 469.959h-13.256l6.383-18.223h.166l6.707 18.223zm-27.832 21.539h12.924v-4.137h-4.471l4.471-13.256h16.568l4.723 13.256h-4.723v4.137h17.313v-4.137h-4.305l-17.49-46.727h-4.219l-16.484 46.727h-4.307v4.137z" id="path3760"/><path d="M580.788 488.105h-3.313c-8.199 0-14.08-3.898-14.08-14.5 0-8.453 3.479-13.344 9.277-13.344 2.654 0 5.545 1.332 8.115 3.898v23.946zm-6.131-47.72h6.131v19.877c-3.395-2.893-7.041-4.387-10.52-4.387-8.367 0-15.408 8.035-15.408 17.73 0 10.939 7.793 17.893 19.797 17.893h19.889v-3.393h-6.133V436.99h-13.756v3.395z" id="path3762"/><path d="M596.487 488.105h6.133v-27.844h-6.133v-3.395h13.748v3.984c5.309-2.824 9.287-4.977 13.674-4.977 3.971 0 7.211 2.152 8.535 5.799 3.564-2.725 9.283-5.799 13.92-5.799 6.486 0 9.984 4.148 9.984 11.598v20.633h6.063v3.393h-19.525v-3.393h5.807v-18.396c0-5.955-2.076-8.777-6.391-8.777-2.57 0-5.969 1.58-9.029 3.725v23.449h6.053v3.393h-19.477v-3.393h5.797v-17.322c0-5.873-.824-9.852-6.207-9.852-3.152 0-5.307 1.328-9.203 3.725v23.449h5.881v3.393h-19.629v-3.393z" id="path3764"/><path d="M665.679 488.105h6.049v-27.844h-6.049v-3.395h13.668v31.238h5.881v3.393h-19.549v-3.392zm13.689-41.718c0 2.477-2.082 4.574-4.58 4.574-2.484 0-4.574-2.098-4.574-4.574 0-2.492 2.09-4.582 4.574-4.582 2.498 0 4.58 2.09 4.58 4.582z" id="path3766"/><path d="M688.706 488.105h6.297v-27.844h-6.297v-3.395h13.924v3.898c4.053-2.977 8.201-4.891 12.838-4.891 5.467 0 9.529 3.48 9.529 10.115v22.115h6.125v3.393h-19.217v-3.393h5.469v-20.385c0-4.717-2.572-7.207-6.135-7.207-2.568 0-5.715 1.332-8.609 3.646v23.945h5.717v3.393h-19.641v-3.39z" id="path3768"/><path d="M733.979 488.105h6.047v-27.844h-6.047v-3.395h13.672v31.238h5.885v3.393h-19.557v-3.392zm13.694-41.718c0 2.477-2.084 4.574-4.582 4.574-2.488 0-4.574-2.098-4.574-4.574 0-2.492 2.086-4.582 4.574-4.582 2.498 0 4.582 2.09 4.582 4.582z" id="path3770"/><path d="M758.501 480.816h1.824c1.16 5.139 5.057 8.285 9.113 8.285 3.646 0 6.133-1.822 6.133-4.557 0-5.391-8.117-5.391-13.92-11.189-2.232-2.232-3.311-4.807-3.311-7.283 0-5.643 5.129-10.197 11.43-10.197 2.404 0 4.135.5 6.875 1.984v-1.898h2.57v9.191h-1.984c-1.004-3.73-3.645-5.883-7.129-5.883-2.984 0-5.301 2.002-5.301 4.561 0 4.885 8.938 6.299 14.328 11.688 1.982 1.984 2.896 4.305 2.896 6.789 0 6.051-4.795 10.184-11.764 10.184-3.314 0-5.215-.57-8.857-2.564l-.5 2.402H758.5v-11.513z" id="path3772"/><path d="M784.761 460.262l12.434-12.834v9.439h9.686v3.395h-9.686v20.051c0 5.477 1.48 8.045 4.635 8.045 3.316 0 4.967-2.65 5.803-2.65.492 0 .826.654.826 1.072 0 .912-3.063 5.711-9.111 5.711-6.299 0-9.777-4.053-9.777-11.512v-20.717h-4.81z" id="path3774"/><path d="M812.989 488.105h6.211v-27.844h-6.211v-3.395h13.824v5.799h.17c4.146-5.131 6.217-6.791 8.453-6.791 2.066 0 3.896.992 5.879 3.311-.654 3.48-1.74 6.305-3.143 8.535-1.994-3.645-3.154-4.885-5.477-4.885-2.232 0-3.969 1.494-5.883 4.145v21.125h6.221v3.393h-20.045v-3.393z" id="path3776"/><path d="M862.358 475.186v9.275c-2.152 1.744-3.969 2.568-5.631 2.568-2.572 0-4.469-1.992-4.469-4.637.001-3.396 2.889-5.474 10.1-7.206zm-15.576-11.19c4.146-2.574 7.123-3.734 9.775-3.734 4.557 0 5.801 2.826 5.801 6.889v4.639l-7.617 1.896c-6.799 1.666-9.611 4.559-9.611 9.697 0 5.055 3.479 9.107 8.031 9.107 2.99 0 5.969-2.066 10.109-5.129 1.822 3.639 3.643 5.129 6.299 5.129 2.402 0 4.971-.992 7.541-2.813v-2.316c-.754.158-2.904.494-3.564.494-2.07 0-3.564-2.148-3.564-5.635v-14.162c0-7.545-4.145-12.184-10.852-12.184-4.146 0-9.027 2.07-13.174 5.719l.826 2.403z" id="path3778"/><path d="M877.905 460.262l12.432-12.834v9.439h9.697v3.395h-9.697v20.051c0 5.477 1.486 8.045 4.637 8.045 3.316 0 4.977-2.65 5.799-2.65.502 0 .83.654.83 1.072 0 .912-3.063 5.711-9.111 5.711-6.303 0-9.777-4.053-9.777-11.512v-20.717h-4.81z" id="path3780"/><path d="M904.831 488.105h6.051v-27.844h-6.051v-3.395h13.672v31.238h5.885v3.393h-19.557v-3.392zm13.701-41.718c0 2.477-2.084 4.574-4.582 4.574-2.488 0-4.574-2.098-4.574-4.574 0-2.492 2.086-4.582 4.574-4.582 2.498 0 4.582 2.09 4.582 4.582z" id="path3782"/><path d="M935.188 474.188c0-9.359 3.971-14.918 10.521-14.918 6.621 0 10.518 5.559 10.518 14.918 0 9.365-3.896 14.914-10.518 14.914-6.55 0-10.521-5.549-10.521-14.914zm-8.535 0c0 10.273 8.367 18.303 19.057 18.303 10.68 0 19.053-8.029 19.053-18.303 0-10.277-8.373-18.313-19.053-18.313-10.689 0-19.057 8.035-19.057 18.313z" id="path3784"/><path d="M966.271 488.105h6.301v-27.844h-6.301v-3.395h13.92v3.898c4.063-2.977 8.211-4.891 12.85-4.891 5.463 0 9.518 3.48 9.518 10.115v22.115h6.133v3.393h-19.215v-3.393h5.467v-20.385c0-4.717-2.572-7.207-6.133-7.207-2.57 0-5.717 1.332-8.619 3.646v23.945h5.723v3.393h-19.643v-3.39z" id="path3786"/></g><g id="g3788"><path d="M516.657 347.772h6.879v-39.764h-12.76v6.791h-4.139v-15.076h4.139v2.563h33.557v-2.563h4.141V314.8h-4.141v-6.791h-12.754v39.764h6.873v4.137h-21.795v-4.138z" id="path3790"/><path d="M546.915 348.515h6.213v-27.832h-6.213v-3.396h13.838v5.799h.16c4.146-5.139 6.211-6.791 8.453-6.791 2.066 0 3.896.992 5.881 3.314-.66 3.477-1.734 6.285-3.146 8.535-1.984-3.646-3.145-4.891-5.461-4.891-2.248 0-3.984 1.484-5.887 4.135v21.127h6.209v3.395h-20.047v-3.395z" id="path3792"/><path d="M594.505 335.591v9.285c-2.152 1.734-3.971 2.564-5.633 2.564-2.566 0-4.469-1.99-4.469-4.639 0-3.396 2.905-5.468 10.102-7.21zm-15.568-11.182c4.139-2.566 7.129-3.727 9.77-3.727 4.557 0 5.799 2.822 5.799 6.873v4.639l-7.617 1.902c-6.791 1.662-9.609 4.566-9.609 9.697 0 5.051 3.479 9.117 8.031 9.117 2.99 0 5.969-2.08 10.115-5.139 1.816 3.646 3.645 5.139 6.291 5.139 2.402 0 4.971-1.002 7.543-2.822v-2.316c-.742.168-2.904.5-3.564.5-2.066 0-3.564-2.162-3.564-5.641v-14.166c0-7.535-4.133-12.172-10.852-12.172-4.139 0-9.027 2.066-13.176 5.713l.833 2.403z" id="path3794"/><path d="M611.495 348.515h6.299v-27.832h-6.299v-3.396h13.914v3.889c4.063-2.979 8.199-4.881 12.838-4.881 5.475 0 9.537 3.479 9.537 10.102v22.119h6.162v3.395h-19.26v-3.395h5.477v-20.371c0-4.725-2.572-7.213-6.137-7.213-2.566 0-5.713 1.326-8.617 3.646v23.938h5.713v3.395h-19.627v-3.396z" id="path3796"/><path d="M657.351 341.222h1.824c1.164 5.141 5.061 8.293 9.117 8.293 3.645 0 6.133-1.824 6.133-4.564 0-5.383-8.121-5.383-13.918-11.176-2.24-2.24-3.324-4.809-3.324-7.293 0-5.631 5.143-10.188 11.443-10.188 2.402 0 4.135.49 6.871 1.984v-1.904h2.57v9.197h-1.982c-1.008-3.729-3.646-5.883-7.131-5.883-2.982 0-5.303 1.984-5.303 4.559 0 4.889 8.951 6.293 14.332 11.676 1.984 1.988 2.906 4.305 2.906 6.793 0 6.047-4.805 10.195-11.768 10.195-3.322 0-5.221-.582-8.863-2.568l-.5 2.398h-2.408v-11.519z" id="path3798"/><path d="M695.909 324.577c2.895-3.402 4.805-4.564 7.701-4.564 5.883 0 9.609 6.133 9.609 15.994 0 7.617-3.23 13.508-9.029 13.508-3.234 0-6.299-1.91-8.281-4.971v-19.967zm-13.758 45.569h18.676v-3.396h-4.918v-16.742c2.482 1.902 5.629 2.904 9.025 2.904 12.842 0 16.818-10.52 16.818-18.889 0-12.766-8.617-17.729-15.574-17.729-1.988 0-3.729.322-5.385.992-1.658.66-3.234 1.816-4.885 3.396v-3.396H682.15v3.396h6.131v46.066h-6.131v3.398z" id="path3800"/><path d="M734.759 334.597c0-9.357 3.984-14.908 10.523-14.908 6.627 0 10.521 5.551 10.521 14.908 0 9.361-3.895 14.918-10.521 14.918-6.539 0-10.523-5.557-10.523-14.918zm-8.533 0c0 10.279 8.373 18.314 19.057 18.314 10.689 0 19.059-8.035 19.059-18.314 0-10.268-8.369-18.303-19.059-18.303-10.684 0-19.057 8.035-19.057 18.303z" id="path3802"/><path d="M768.317 348.515h6.205v-27.832h-6.205v-3.396h13.836v5.799h.162c4.139-5.139 6.207-6.791 8.453-6.791 2.066 0 3.889.992 5.875 3.314-.66 3.477-1.736 6.285-3.146 8.535-1.986-3.646-3.146-4.891-5.463-4.891-2.242 0-3.982 1.484-5.881 4.135v21.127h6.213v3.395h-20.049v-3.395z" id="path3804"/><path d="M800.267 320.683l12.432-12.842v9.445h9.695v3.396h-9.695v20.047c0 5.463 1.498 8.033 4.641 8.033 3.313 0 4.973-2.652 5.799-2.652.502 0 .83.668.83 1.078 0 .916-3.064 5.723-9.115 5.723-6.301 0-9.775-4.066-9.775-11.521v-20.707h-4.812z" id="path3806"/><path d="M844.427 335.591v9.285c-2.15 1.734-3.977 2.564-5.633 2.564-2.563 0-4.477-1.99-4.477-4.639 0-3.396 2.907-5.468 10.11-7.21zm-15.574-11.182c4.148-2.566 7.127-3.727 9.781-3.727 4.551 0 5.793 2.822 5.793 6.873v4.639l-7.623 1.902c-6.791 1.662-9.611 4.566-9.611 9.697 0 5.051 3.477 9.117 8.045 9.117 2.977 0 5.963-2.08 10.102-5.139 1.828 3.646 3.645 5.139 6.301 5.139 2.402 0 4.961-1.002 7.531-2.822v-2.316c-.744.168-2.895.5-3.564.5-2.064 0-3.559-2.162-3.559-5.641v-14.166c0-7.535-4.139-12.172-10.848-12.172-4.146 0-9.037 2.066-13.172 5.713l.824 2.403z" id="path3808"/><path d="M860.769 320.683l12.418-12.842v9.445h9.697v3.396h-9.697v20.047c0 5.463 1.496 8.033 4.641 8.033 3.322 0 4.977-2.652 5.807-2.652.492 0 .83.668.83 1.078 0 .916-3.074 5.723-9.115 5.723-6.295 0-9.775-4.066-9.775-11.521v-20.707h-4.806z" id="path3810"/><path d="M887.688 348.515h6.051v-27.832h-6.051v-3.396h13.666v31.229h5.891v3.395h-19.557v-3.396zm13.696-41.723c0 2.494-2.088 4.576-4.586 4.576-2.482 0-4.572-2.082-4.572-4.576 0-2.494 2.09-4.582 4.572-4.582 2.498 0 4.586 2.088 4.586 4.582z" id="path3812"/><path d="M920.413 334.597c0-9.357 3.977-14.908 10.518-14.908 6.631 0 10.52 5.551 10.52 14.908 0 9.361-3.889 14.918-10.52 14.918-6.541 0-10.518-5.557-10.518-14.918zm-8.537 0c0 10.279 8.369 18.314 19.055 18.314 10.688 0 19.057-8.035 19.057-18.314 0-10.268-8.369-18.303-19.057-18.303-10.686 0-19.055 8.035-19.055 18.303z" id="path3814"/><path d="M953.882 348.515h6.289v-27.832h-6.289v-3.396h13.916v3.889c4.066-2.979 8.205-4.881 12.844-4.881 5.471 0 9.525 3.479 9.525 10.102v22.119h6.133v3.395h-19.225v-3.395h5.479v-20.371c0-4.725-2.574-7.213-6.131-7.213-2.574 0-5.721 1.326-8.625 3.646v23.938h5.717v3.395h-19.633v-3.396z" id="path3816"/></g></g><g id="g3818"><circle cx="342.292" cy="396.474" r="125" id="circle3820" fill="#fff"/><g id="g3822"><g id="g3824" fill="#00578e"><path d="M418.238 351.566c-1.4.48-2.797.865-4.158 1.161 7.783 12.744 12.266 27.72 12.266 43.74 0 46.414-37.625 84.041-84.037 84.041-46.412 0-84.037-37.627-84.037-84.041 0-16.726 4.888-32.31 13.31-45.401a26.736 26.736 0 01-3.963-1.521c-8.558 13.588-13.509 29.677-13.509 46.922 0 48.712 39.489 88.2 88.199 88.2 48.711 0 88.2-39.488 88.2-88.2 0-16.398-4.475-31.749-12.271-44.901z" id="path3826"/><path d="M293.448 328.088c13.768-9.854 30.636-15.655 48.86-15.655 20.354 0 39.019 7.235 53.561 19.276a175.24 175.24 0 014.873-1.306c-15.56-13.772-36.016-22.134-58.434-22.134-20.094 0-38.624 6.724-53.454 18.042.701.255 1.409.513 2.124.788.851.327 1.674.656 2.47.989z" id="path3828"/></g><path d="M342.292 271.474c-69.032 0-124.999 55.963-124.999 124.998 0 69.038 55.966 125.002 124.999 125.002 69.037 0 125.001-55.964 125.001-125.002 0-69.035-55.965-124.998-125.001-124.998zm.004 242.257c-64.762 0-117.259-52.5-117.259-117.26 0-64.755 52.497-117.252 117.259-117.252 64.755 0 117.253 52.498 117.253 117.252 0 64.76-52.498 117.26-117.253 117.26z" id="path3830" fill="#00578e"/><g id="g3832" fill="#00578e"><path d="M312.132 371.41c-1.783-.912-3.338-1.966-5.007-3.488-5.365-4.89-6.635-10.029-5.048-15.932.943-3.514 2.382-5.284 1.893-8.95-.279-2.1-1.769-3.789-3.254-5.215-3.586-3.449-7.837-5.577-14.122-7.692-3.88-1.303-15.163-4.806-20.143-9.313-1.125 3.311 1.284 7.715 4.151 8.305-2.538.256-4.711 1.579-5.718 3.02 1.915 2.22 5.742 4.529 8.899 4.589-1.46.979-3.235 3.05-3.831 4.214 2.73 1.452 7.083 2.672 10.434 2.439-1.407 1.126-2.628 2.559-3.421 3.869 2.266 1.033 6.673 2.534 10.872 2.846-1.545.764-3.752 3.399-4.892 5.023 2.359 1.056 7.47 1.693 10.64 2.009-2.27 1.195-4.64 3.575-5.948 5.729 2.297 1.104 6.621 2.331 10.154 2.217-1.74 1.666-2.894 3.699-3.553 5.663 2.674.548 5.488.561 8.745.124-1.98 2.505-2.773 5.814-3.054 8.181 2.651-.078 6.167-.677 8.651-2.165-.542 2.026-.419 4.761.452 6.695 1.038-.233 2.25-.668 3.564-1.381a762.538 762.538 0 01-.464-10.787z" id="path3834"/><path d="M419.844 326.9c-4.98 4.51-12.943 5.715-21.303 8.476-6.296 2.076-10.205 3.294-15.844 7.788-1.609 1.282-3.141 3.158-2.969 6.4.191 3.6.775 5.151.865 10.184.066 3.585-1.166 6.469-2.675 8.174-1.589 1.8-3.659 3.367-5.509 4.339-.113 3.06-.25 6.133-.42 9.704 1.311.713 2.987 1.38 4.027 1.613.865-1.935.99-4.669.449-6.695 2.48 1.488 5.998 2.087 8.648 2.165-.28-2.366-1.072-5.676-3.053-8.181 3.255.437 6.069.424 8.741-.124-.658-1.964-1.812-3.997-3.55-5.663 3.532.114 7.858-1.113 10.156-2.217-1.312-2.154-3.682-4.534-5.949-5.729 3.168-.315 8.419-.932 10.781-1.986-1.143-1.624-3.493-4.282-5.033-5.046 4.197-.312 8.604-1.813 10.871-2.846-.798-1.311-2.018-2.743-3.42-3.869 3.934-.265 7.703-.987 10.432-2.439-.596-1.164-2.375-3.235-3.83-4.214 8.429-2.346 8.572-6.556 8.585-9.834z" id="path3836"/><path d="M384.411 335.803c-11.949-8.3-26.464-13.165-42.118-13.165-14.271 0-27.594 4.047-38.894 11.05 2.929 2.276 4.669 4.68 5.093 7.185.372 2.191.625 4.832-.643 8.686-1.344 4.09-2.079 8.293.941 12.56 3.004 4.247 6.905 6.079 10.14 6.7a148.423 148.423 0 0113.601-1.725c.609-1.978 2.415-3.697 4.223-5.104 2.625-2.042 2.045-3.829 1.424-5.217-.483-1.082-1.424-1.966-2.775-2.668-1.183-.61-5.514-1.062-5.398 1.706-.703-.998-1.275-2.36-.856-4.094.583-2.414 4.528-3.027 5.508-2.956-.76-.645-.287-1.684 1.44-2.162 2.099-.58 4.086-.669 6.014-.619 3.956.103 4.579 1.068 6.591 2.853 2.423 2.154 5.617 2.896 6.883 1.599-.904 2.062-3.779 3.159-5.627 2.839.898 2.854 1.221 5.328 1.543 8.322.146 1.36.43 3.65.798 5.52 5.308.438 10.632 1.17 15.272 2.058 1.928-.563 3.92-1.689 5.705-3.756 1.7-1.962 3.26-4.448 2.615-10.712-.18-1.763-1.064-6.274-.939-8.396.278-4.813 3.851-7.954 9.459-10.504z" id="path3838"/><path d="M335.32 348.992c.734.552 1.16.619 1.406.566.02.134.262.311.317.363a.873.873 0 01.286.415 47.128 47.128 0 012.017-.785c.815-.294 1.943-.625 1.943-.625-3.496-.736-4.026.332-5.969.066z" id="path3840"/></g><g id="g3842"><g id="g3844"><g id="g3846"><path d="M342.285 433.619h-.792c-.391-2.483-2.199-4.021-4.829-4.831-2.001-.62-4.902-1.563-11.107-3.462-7.193-2.207-10.864-7.996-11.357-15.271-.695-10.272-1.73-28.329-2.106-39.818 8.114-1.996 20.099-3.563 30.192-3.563 10.096 0 22.078 1.567 30.196 3.563-.375 11.489-1.411 29.546-2.11 39.818-.493 7.275-4.159 13.064-11.355 15.271-6.206 1.899-9.106 2.842-11.106 3.462-2.631.811-4.439 2.348-4.829 4.831h-.797" id="path3848" fill="#fff"/></g><path d="M340.227 407.382l-1.468-.734-.953-2.486-2.159-.942-2.422-2.165-1.443 1.593-2.151.501-1.144 1.822-1.739 1.838-2.356 1.246-1.631 2.763-.921 1.225-1.594 1.238-.878-.93-.938.899-1.177 2.177c-.623-1.624-1-2.886-1.188-5.496-.346-4.827-.696-10.895-1.04-17.103 7.97-1.717 18.107-2.855 26.345-2.934v18.817c-.373-.224-.757-.399-1.143-1.329z" id="path3850" fill="#00578e"/><path d="M341.37 416.446h-23.692c.348.73.752 1.414 1.208 2.058 1.71 2.396 4.137 4.168 7.219 5.112a981.218 981.218 0 018.795 2.74l2.315.725c1.898.586 3.224 1.436 4.154 2.383v-13.018z" id="path3852" fill="#00578e"/><path d="M366.396 407.291c.646-.519 1.395-1.127 2.379-1.485.139-2.207.283-4.572.428-7.019-.26.171-.539.393-.873.664-1.129.911-2.543 2.054-5.023 2.054-2.332 0-3.842-.925-5.051-1.67-.992-.611-1.779-1.091-2.933-1.091-1.282 0-2.383.659-3.553 1.358-1.253.753-2.682 1.606-4.429 1.606-1.785 0-3.086-.543-4.141-1.131v6.653c.243.139.475.283.699.42 1.061.654 1.979 1.217 3.441 1.217.899 0 1.801-.541 2.848-1.171 1.409-.842 3.002-1.795 5.134-1.795 2.021 0 3.359.824 4.545 1.545 1.056.656 1.975 1.219 3.438 1.219 1.396.001 2.149-.605 3.091-1.374z" id="path3854" fill="#00578e"/><path d="M347.342 422.45c-1.785 0-3.086-.545-4.141-1.127v8.141c.93-.947 2.258-1.799 4.152-2.383l2.317-.725a903.58 903.58 0 018.795-2.74 14.45 14.45 0 003.354-1.503c-1.523-.285-2.628-.965-3.563-1.539-.992-.61-1.779-1.092-2.933-1.092-1.282 0-2.383.664-3.553 1.361-1.252.756-2.681 1.607-4.428 1.607z" id="path3856" fill="#00578e"/><path d="M366.396 397.061c.777-.628 1.701-1.375 3.006-1.668.047-.852.096-1.706.146-2.565-7.973-1.714-18.105-2.85-26.348-2.934v7.109c.243.137.475.279.699.42 1.061.651 1.979 1.218 3.441 1.218.899 0 1.801-.542 2.848-1.174 1.409-.842 3.002-1.797 5.134-1.797 2.021 0 3.359.828 4.545 1.549 1.056.655 1.975 1.216 3.438 1.216 1.396 0 2.149-.606 3.091-1.374z" id="path3858" fill="#00578e"/><path d="M343.201 410.809v6.935c.243.137.475.281.699.418 1.061.658 1.979 1.217 3.441 1.217.899 0 1.801-.539 2.848-1.169 1.409-.842 3.002-1.799 5.134-1.799 2.021 0 3.359.826 4.545 1.55 1.056.653 1.975 1.214 3.438 1.214 1.135 0 1.842-.398 2.576-.959 1.518-2.252 2.404-5.039 2.621-8.285.006-.137.018-.277.028-.41l-.202.158c-1.129.915-2.543 2.057-5.023 2.057-2.332 0-3.842-.924-5.051-1.668-.992-.614-1.779-1.096-2.933-1.096-1.282 0-2.383.659-3.553 1.363-1.253.752-2.682 1.604-4.429 1.604-1.783-.001-3.084-.543-4.139-1.13z" id="path3860" fill="#00578e"/></g><g id="g3862"><path d="M314.924 391.018c-.377-6.923-.711-13.89-.909-19.393 8.396-1.907 19.53-3.161 28.27-3.161 8.741 0 19.877 1.254 28.274 3.161-.199 5.503-.533 12.47-.912 19.393-7.914-1.68-18.385-2.92-27.362-2.92-8.978 0-19.443 1.24-27.361 2.92z" id="path3864" fill="#00578e"/><path id="polygon3866" fill="#fff" d="M320.872 373.924l.158-1.515.617 1.394 1.472-.309-1.118 1.019.755 1.326-1.308-.771-1.006 1.134.311-1.493-1.384-.626z"/><path id="polygon3868" fill="#fff" d="M327.706 373.764l-1.354-.687 1.509-.092.222-1.508.557 1.42 1.487-.247-1.162.971.697 1.358-1.275-.827-1.06 1.09z"/><path id="polygon3870" fill="#fff" d="M334.693 373.13l-1.318-.754 1.512-.016.301-1.494.479 1.447 1.5-.168-1.214.909.627 1.391-1.229-.893-1.112 1.036z"/><path id="polygon3872" fill="#fff" d="M341.687 372.867l-1.267-.834 1.506.077.391-1.47.394 1.47 1.506-.077-1.269.834.543 1.43-1.174-.965-1.172.965z"/><path id="polygon3874" fill="#fff" d="M361.514 373.503l1.472.309.619-1.393.155 1.515 1.504.159-1.383.626.314 1.493-1.009-1.134-1.309.77.756-1.326z"/><path id="polygon3876" fill="#fff" d="M356.531 371.477l.231 1.508 1.506.086-1.35.691.383 1.478-1.064-1.086-1.274.83.699-1.359-1.172-.967 1.49.241z"/><path id="polygon3878" fill="#fff" d="M349.453 370.871l.303 1.493 1.511.018-1.317.752.452 1.459-1.113-1.037-1.228.893.624-1.392-1.212-.909 1.502.169z"/><path id="polygon3880" fill="#fff" d="M321.893 385.124l.17-1.514.606 1.398 1.475-.297-1.126 1.01.745 1.331-1.302-.78-1.014 1.126.322-1.49-1.38-.636z"/><path id="polygon3882" fill="#fff" d="M328.472 385.031l-1.348-.697 1.51-.079.237-1.507.543 1.426 1.489-.233-1.171.959.686 1.365-1.269-.838-1.068 1.08z"/><path id="polygon3884" fill="#fff" d="M335.186 384.458l-1.315-.759 1.511-.01.307-1.492.473 1.449 1.501-.164-1.218.905.621 1.393-1.225-.897-1.115 1.031z"/><path id="polygon3886" fill="#fff" d="M341.916 384.229l-1.267-.833 1.506.078.391-1.472.393 1.472 1.506-.078-1.267.833.542 1.43-1.174-.965-1.172.965z"/><path id="polygon3888" fill="#fff" d="M360.959 384.784l1.473.303.613-1.396.16 1.514 1.505.154-1.38.631.321 1.492-1.014-1.13-1.305.775.75-1.329z"/><path id="polygon3890" fill="#fff" d="M356.235 382.805l.234 1.508 1.508.083-1.35.694.387 1.476-1.066-1.084-1.273.833.696-1.361-1.173-.964 1.491.239z"/><path id="polygon3892" fill="#fff" d="M349.42 382.229l.303 1.495 1.509.015-1.316.754.453 1.457-1.113-1.036-1.231.893.625-1.392-1.211-.908 1.501.168z"/><path id="polygon3894" fill="#fff" d="M325.249 378.521l.203-1.509.574 1.411 1.482-.264-1.149.985.714 1.347-1.284-.808-1.039 1.102.356-1.483-1.364-.667z"/><path id="polygon3896" fill="#fff" d="M318.549 379.555l.147-1.517.627 1.39 1.47-.32-1.11 1.028.764 1.32-1.314-.762-.997 1.142.3-1.495-1.389-.616z"/><path id="polygon3898" fill="#fff" d="M331.784 378.579l-1.333-.726 1.512-.046.269-1.501.513 1.437 1.494-.201-1.193.935.656 1.377-1.25-.865-1.092 1.058z"/><path id="polygon3900" fill="#fff" d="M338.476 378.17l-1.296-.791 1.511.027.343-1.485.439 1.46 1.504-.126-1.24.874.587 1.408-1.201-.927-1.143 1.004z"/><path id="polygon3902" fill="#fff" d="M345.197 378.135l-1.238-.877 1.503.129.44-1.457.344 1.483 1.507-.026-1.294.791.492 1.446-1.139-1.004-1.206.925z"/><path id="polygon3904" fill="#fff" d="M364.168 379.138l1.467.338.644-1.38.125 1.517 1.5.191-1.394.597.284 1.5-.985-1.155-1.326.743.784-1.31z"/><path id="polygon3906" fill="#fff" d="M359.488 377.057l.201 1.512 1.506.117-1.363.664.356 1.485-1.043-1.106-1.291.805.724-1.346-1.152-.989 1.486.271z"/><path id="polygon3908" fill="#fff" d="M352.705 376.336l.27 1.5 1.509.051-1.333.724.419 1.468-1.09-1.062-1.248.865.656-1.377-1.192-.937 1.499.203z"/></g></g><path d="M421.774 406.715l-6.114 1.886 1.379.563-2.145 1.358c.237-1.246.444-2.504.619-3.771l3.357-2.807.076 1.487 3.779-5.165-5.816 2.67 1.44.376-2.681 2.236c.188-1.541.328-3.098.418-4.667l3.307-3.66.277 1.464 3.053-5.623-5.411 3.418 1.483.179-2.643 2.831c.037-.975.063-1.951.063-2.934a73.965 73.965 0 00-3.092-21.214c-3.35.307-6.701-.762-8.311-1.074 4.286 2.515 5.771 5.229 6.401 8.347-3.43.771-8.013-.355-10.515-2.319 2.455 2.147 4 5.518 4.107 9-3.539.178-6.797-1.479-9.196-3.881 1.542 1.715 3.486 6.059 3.027 9.145-2.946-.313-6.427-2.244-8.31-4.552 1.559 3.456 2.309 6.253 2.126 9.352-2.938-.553-5.162-1.375-7.788-3.885 1.266 3.153 1.732 6.322 1.451 8.928-3.392-1.196-5.641-2.544-7.547-5.736 1.011 2.811 1.676 6.507.973 8.657-2.865-.859-4.762-2.578-6.249-5.512 1.475 3.105 1.288 6.721.792 8.601-1.204-.242-2.768-1.07-3.607-1.993l-.11 1.637c-.142 2.1-.558 4.07-1.237 5.875.233.269.795.933.818.96 1.51 1.616 3.567 3.163 5.197 3.677-.705.103-1.668.705-2.637.815 1.076 1.221 3.266 1.49 4.627 2.875-1.061.12-1.31.891-2.583.746 2.437 1.88 4.671 1.953 5.925 2.096.501.058 2.145.212 3.185.052 1.471-.228 2.994.507 3.585.85.904.525.852 1.772.676 2.396-.107.383-.274.828-.949 1.185-.392.107-.635.137-.245-.148.356-.264.677-1.836-.145-2.45a3.83 3.83 0 00-2.435-.757c-1.102.054-2.787.152-3.6.069-.748-.079-1.213.909-1.324 1.321-.268.979-.57 2.199-1.988 1.591-1.738-.998-4.229-.917-7.081-2.064.409.876.231 1.633.667 2.609-2.537-.624-3.182-1.914-5.6-2.764.398.888.292 1.569.838 2.405-2.043-.361-3.944-2.191-6.783-2.948-.086.028-.17.054-.258.08-1.033.314-1.973.605-2.834.871 2.007 2.278 3.666 5.066 4.439 8.446 0 0-1.406.039-3.508-.689.6 1.84.973 3.821 1.004 5.935 0 0-1.592-.295-3.766-1.639a21.58 21.58 0 01-.292 6.224s-1.843-.754-4.013-2.967a22.471 22.471 0 01-1.658 6.241s-1.671-1.141-3.395-3.801a24.123 24.123 0 01-3.071 6.049s-1.832-1.921-3.07-5.8c-1.657 2.482-3.227 3.552-3.227 3.552a22.894 22.894 0 01-1.66-6.243c-2.166 2.215-4.008 2.969-4.008 2.969a21.507 21.507 0 01-.296-6.228c-2.176 1.348-3.773 1.643-3.773 1.643a20.223 20.223 0 011.009-5.935c-2.1.729-3.505.689-3.505.689.791-3.446 3.046-6.986 4.56-8.579h.003c-.74-.228-1.542-.476-2.399-.738a12.647 12.647 0 01-.257-.08c-2.837.757-4.74 2.587-6.78 2.948.544-.836.432-1.518.832-2.405-2.415.85-3.063 2.14-5.595 2.764.431-.977.255-1.733.668-2.609-2.351 1.147-5.577 1.951-7.01 2.255-1.572.326-1.671-2.019-2.187-2.538-.228-.228-1.493-.326-2.021-.237-.78.133-2.306.065-3.446.042-1.138-.021-1.924.32-2.521.769-.826.609-.437 2.252-.077 2.516.391.287.149.255-.243.146-.676-.353-.844-.801-.952-1.183-.175-.626-.229-1.87.681-2.396.585-.342 2.11-1.079 3.581-.852 1.037.161 2.681.008 3.182-.053.5-.056 4.177-.729 6.613-2.609-1.273.145-1.527-.626-2.586-.746 1.364-1.385 3.553-1.654 4.63-2.875-.968-.11-1.818-.885-2.52-.986 2.143-1.2 3.568-1.89 5.08-3.506.021-.027.578-.665.813-.931-.688-1.811-1.107-3.793-1.25-5.904l-.105-1.579c-.529.584-1.61 1.169-3.365 1.801-.823-1.995-.424-5.717.615-8.593-1.49 2.934-3.18 4.841-6.051 5.7-.702-2.15-.287-5.908.721-8.719-1.905 3.192-3.948 4.809-7.344 6.004-.279-2.605-.012-6.042 1.244-9.195-2.62 2.51-4.846 3.332-7.782 3.885-.187-3.099.568-5.896 2.127-9.352-1.881 2.308-5.793 3.887-8.741 4.199.224-2.682 2.103-6.351 3.204-8.507-2.785 2.001-5.744 3.423-8.942 3.596.401-3.042 1.765-6.344 4.105-9-2.755 2.044-6.967 3.147-10.141 2.716.772-3.341 2.822-6.599 5.603-8.343-1.607.313-4.534.98-7.882.674a73.922 73.922 0 00-3.092 20.873c-1.677-1.315-2.84-1.646-3.995-2.787.218 1.57.422 2.425.598 4.369.315 3.49 1.633 5.495 3.825 6.749.107.996.233 1.984.379 2.969-1.624-1.044-3.798-1.686-6.678-1.653 1.751 5.69 4.248 6.11 7.601 6.653.114.521.234 1.038.36 1.555-1.784-.462-3.925-.476-6.363.2 1.685 2.614 4.017 4.195 7.753 4.76l.02.062c-2.296-.188-4.78.146-6.759 1.158 2.833 2.435 5.609 3.363 8.261 3.09.135.347.275.693.416 1.04-2.098.557-3.943 1.646-4.984 2.656 2.212.695 4.474 1.072 6.519.854.024.052.047.104.071.153-1.201.915-2.246 2.398-2.892 4.726 1.569-.402 3.185-.505 4.792-.967.324.595.657 1.185.996 1.77-.847 1.614-1.144 3.645-.645 5.891 1.349-.312 2.469-.844 3.387-1.516.317.47.638.934.966 1.395-.338 2.581.261 5.176 1.796 6.903.618-.7 1.114-1.371 1.54-2.021 3.332-5.09 1.316-8.755 1.39-12.056.025-.067.053-.135.079-.206.273 3.93 3.688 7.806-.316 12.554a9.598 9.598 0 01-.222.256c13.556 15.741 33.624 25.712 56.026 25.712 31.809 0 58.922-20.089 69.35-48.273l3.358-1.456-.253 1.466 4.836-4.187-6.271 1.295 1.325.689-2.591 1.058a72.674 72.674 0 001.267-3.951l3.682-2.03-.123 1.485 4.441-4.613-6.125 1.863 1.377.565-2.941 1.62a74.995 74.995 0 001.051-4.378l2.797-1.774-.119 1.483 4.423-4.634z" id="path3910" fill="#00578e"/><path d="M303.369 433.638c6.02 4.531 9.433 10.818 10.311 15.884-.756-.555-2.178-1.129-3.048-.965-.783-5.342-3.574-9.656-7.951-13.174.186-.811.448-1.365.688-1.745z" id="path3912" fill="#fff"/><g id="g3914" fill="#fff"><path d="M298.767 438.344c1.433.559 2.15.354 2.509-.15.767-1.088.403-2.516-.088-2.771.11.438.092.901-.01 1.423-.079.424-.292 1.123-1.084 1.025-.425-.05-1.2-.253-1.662-.568-.331-.226-.325-.792-.145-1.268.091-.242.199-.58.496-.824-.491.113-.78.368-1.163.666-.383.297-.95.356-1.271.002-.405-.442-.655-.778-.787-1.08-.342-.776.659-1.349 1.24-1.653-1.003.014-1.181.396-1.991.255-.813-.141-1.021-1.445-1.018-1.88.001-.318.392-.619.868-.73.443-.104.98-.063 1.277-.032a3.077 3.077 0 01-.064-.709c-.821-.189-2.402.088-2.699.539-.381.572-.29.874.021 1.892.297.98.53 1.329 1.17 1.424.175.024.51.074.893-.069-.199.127-.337.232-.437.487-.108.26-.277.703.489 1.635.677.813 1.339 1.127 1.896.824.318-.175.425-.373.579-.525a3.652 3.652 0 00-.226.686c-.156.798.449 1.108 1.207 1.401z" id="path3916"/><g id="g3918"><path d="M297.717 432.08c.411-.511 1.399-.572 1.963-.22-.385.718-.416 1.924-.204 2.51-1.422-.225-1.674-1.572-1.759-2.29z" id="path3920"/><path d="M299.938 432.001c.834-.06 1.142-.469 1.295-.877.149-.402.6-.654.607-.042.006.61.012.884-.337 1.052-.347.167-.964.218-1.565-.133z" id="path3922"/><path d="M300.365 433.32c-.075.445-.24.872-.517 1.273-.214.308-.517.499-.739.689.383.291.927.458 1.381.436.454-.023.472-.089.444-.263-.106-.758-.395-1.836-.569-2.135z" id="path3924"/></g></g><g id="g3926"><path d="M384.254 431.346c.388.715.414 1.923.207 2.51 1.418-.226 1.672-1.573 1.756-2.288-.41-.513-1.397-.573-1.963-.222z" id="path3928" fill="#fff"/><path d="M383.996 431.486c-.836-.058-1.141-.47-1.291-.876-.155-.403-.603-.653-.608-.041-.011.61-.013.881.333 1.048.347.168.968.224 1.566-.131z" id="path3930" fill="#fff"/><path d="M384.087 434.077a3.216 3.216 0 01-.519-1.273c-.17.303-.462 1.378-.568 2.139-.025.173-.01.238.446.264.454.023.997-.145 1.382-.436-.226-.191-.527-.381-.741-.694z" id="path3932" fill="#fff"/><g id="g3934" fill="#fff"><path d="M408.831 411.494l1.437.395-21.645 17.098.004.004-.509.404-.097.014c.018.254 0 .501-.036.713.306-.014.722-.01 1.075.082.47.122.85.438.842.754-.008.435-.245 1.735-1.063 1.853-.819.116-.98-.27-1.987-.315.572.323 1.558.921 1.193 1.689-.142.3-.398.626-.813 1.061-.334.345-.896.269-1.271-.04-.377-.307-.656-.57-1.143-.699.289.254.39.597.467.838.171.479.158 1.048-.178 1.266-.473.299-1.253.483-1.678.521-.791.071-.988-.634-1.057-1.057-.084-.524-.09-.988.031-1.424-.494.242-.9 1.66-.166 2.77.342.513 1.055.736 2.506.222.766-.273 1.379-.566 1.246-1.371-.041-.237-.129-.478-.205-.691.148.157.248.357.563.537.549.323 1.214.025 1.916-.769.791-.905.635-1.358.535-1.618-.095-.26-.23-.37-.424-.499.377.154.715.112.893.093.643-.075.884-.42 1.211-1.391.34-1.008.437-1.305.072-1.89-.152-.245-.674-.451-1.252-.564l21.477-16.945.059 1.491 3.852-5.112-5.855 2.58z" id="path3936"/><path d="M397.287 416.749l15.252-19.311.404 1.437 2.561-5.868-5.096 3.871 1.486.052-13.809 17.504a6342.092 6342.092 0 01-3.313 5.021l.028.023a4506.1 4506.1 0 002.487-2.729z" id="path3938"/><path d="M395.469 422.487c1.281-1.012 2.617-2.065 3.925-3.1l12.702-11.762.178 1.481 3.431-5.405-5.63 3.044 1.463.279-12.742 11.815-3.327 3.648z" id="path3940"/><path d="M409.578 419.721l-17.886 8.959c-.315.251-.567.447-.724.572.127.103.232.214.309.337.035.058.062.11.092.164l18.576-9.3-.248 1.472 4.816-4.219-6.262 1.335 1.327.68z" id="path3942"/><path d="M382.547 438.669a1.911 1.911 0 01-.702-.408l-3.202 6.64.016.008-1.171.396-3.79 7.26 1.835-.559.667 1.799 3.588-7.36-.422-1.187 3.181-6.589z" id="path3944"/><path d="M395.016 426.059l4.084-2.046 11.893-7.771-.078 1.491 4.302-4.743-6.065 2.044 1.395.522-12.941 8.46c-.917.721-1.79 1.409-2.59 2.043z" id="path3946"/><path d="M381.088 436.894a3.338 3.338 0 01-.095-1.087l-4.249 4.633-1.25.104-.105.107-.001.002-5.911 5.912.277-.014-.021.022.072-.024 1.458-.071.257 1.448 4.898-6.438.944-.202 3.726-4.392z" id="path3948"/><path d="M388.922 427.659c.523-.412 1.268-1.002 2.168-1.711l20.875-22.827.295 1.464 2.988-5.663-5.368 3.484 1.48.161-21.854 23.909c-.211.426-.404.821-.584 1.183z" id="path3950"/><path d="M370.24 443.264l7.777-5.479c.892-.973 1.866-2.034 2.212-2.413l-9.721 6.416.011.016-1.212-.253-.71.443-6.24 3.893 1.752.364.211 1.315 5.033-4.344.887.042z" id="path3952"/><path d="M363.791 443.983l3.117-1.943 2.907-1.981.987.19s7.084-4.365 8.816-5.498l.139-.092h.002l.055-.035-9.304 4.641-1.177-.368-7.4 3.51 1.666.61.192.966z" id="path3954"/></g><g id="g3956"><path d="M398.871 401.023l1.467-.257-13.369 27.079c.107.056.203.108.279.152.158.091.285.206.389.333l13.436-27.2.689 1.325 1.301-6.271-4.192 4.839z" id="path3958" fill="#fff"/></g><path d="M400.477 405.59l1.487-.075-8.397 12.742-2.78 5.631.132-.146 11.73-17.775.522 1.398 2.056-6.065-4.75 4.29z" id="path3960" fill="#fff"/></g><path d="M277.469 421.638c.19.02.146.006-.069-.065-2.232-1.246-3.812-1.672-6.881-1.26 2.883.217 4.904.608 6.95 1.325z" id="path3962" fill="#fff"/><path d="M278.845 437.347c.332-2.141 1.747-4.697 3.832-6.417 1.458-1.206 2.283-1.65 1.069-.374-1.852 1.934-3.996 5.068-4.901 6.791z" id="path3964" fill="#fff"/><path d="M283.406 443.185c-.8-2.015-.104-5.247.766-7.362.603-1.46 2.098-3.681 2.564-3.893-1.658 2.551-3.421 9.311-3.33 11.255z" id="path3966" fill="#fff"/><path d="M276.716 415.083a1.41 1.41 0 00-1.659-1.099 1.402 1.402 0 00-1.1 1.659 1.406 1.406 0 001.658 1.102 1.407 1.407 0 001.101-1.662z" id="path3968" fill="#fff"/><path d="M288.969 417.021c.049-2.109-.272-4.282-.025-6.738-4.199 3.061-5.629 8.428-3.893 12.176a1.422 1.422 0 00-.536.002 1.46 1.46 0 00.576 2.859 1.457 1.457 0 00.509-2.649c-.7-3.318-.122-7.46 1.618-9.209-.545 2.078-1.531 6.428-.89 10.44a11.176 11.176 0 001.576-2.289c.076.632.234 1.289.497 1.973.09-3.191 1.162-6.354 4.472-8.555-2.429 3.078-3.821 6.677-4.111 9.383 1.767-2.244 5.779-2.908 6.063-11.681-2.028.612-4.465 2.095-5.856 4.288z" id="path3970" fill="#fff"/><path d="M291.74 426.039a1.529 1.529 0 00-1.797-1.202 1.53 1.53 0 00-1.192 1.805 1.525 1.525 0 002.989-.603z" id="path3972" fill="#fff"/><path d="M291.208 430.658a1.528 1.528 0 00-1.795-1.2 1.524 1.524 0 00-1.191 1.801c.163.821.966 1.36 1.794 1.192a1.519 1.519 0 001.192-1.793z" id="path3974" fill="#fff"/><path d="M282.366 408.139c-3.089 2.591-3.958 5.844-3.629 8.693a1.146 1.146 0 00-.364.013 1.182 1.182 0 00-.927 1.393 1.179 1.179 0 001.791.766 9.438 9.438 0 001.128 2.245 17.582 17.582 0 01-.584-3.112 1.118 1.118 0 00-.011-.364c-.005-.028-.017-.052-.024-.079-.165-2.433.213-4.94 1.56-6.745-.424 2.646-1.045 7.771-.452 10.948.904-3.385 5.782-4.88 1.512-13.758z" id="path3976" fill="#fff"/><path d="M294.77 428.105a1.192 1.192 0 00-1.399-.93 1.195 1.195 0 00-.93 1.4 1.19 1.19 0 001.399.93 1.193 1.193 0 00.93-1.4z" id="path3978" fill="#fff"/><path d="M288.208 427.881c-.116-.59-.69-.97-1.282-.85a1.09 1.09 0 00-.855 1.282c.116.594.695.979 1.285.855.593-.116.972-.69.852-1.287z" id="path3980" fill="#fff"/><path d="M273.258 412.843a1.012 1.012 0 00-.988-.842c-1.532-2.067-3.739-4.29-7.421-4.679 2.016.957 5.049 2.817 7.153 4.715a1.01 1.01 0 00.429 1.975c.548-.093.919-.62.827-1.169z" id="path3982" fill="#fff"/><path d="M273.302 405.867a1.277 1.277 0 00-1.509-1.001c-.031.006-.058.019-.087.026-.836-3.261-1.644-5.804-5.348-8.348 1.86 2.377 4.004 5.838 5.202 8.393a1.276 1.276 0 00-.769 1.437 1.285 1.285 0 001.509 1.002 1.286 1.286 0 001.002-1.509z" id="path3984" fill="#fff"/><path d="M277.058 418.687a1.004 1.004 0 00-1.166-.822c-.268.046-.49.194-.64.395-3.279-2.893-5.533-2.91-7.262-2.989 1.043.374 4.795 1.448 7.174 3.132a.991.991 0 00-.102.626c.095.557.619.925 1.17.834.551-.099.922-.62.826-1.176z" id="path3986" fill="#fff"/><path d="M279.813 422.782a1.467 1.467 0 00-1.72-1.145 1.463 1.463 0 00-1.14 1.718 1.456 1.456 0 001.718 1.141 1.454 1.454 0 001.142-1.714z" id="path3988" fill="#fff"/><path d="M281.932 425.29a1.01 1.01 0 00-1.17-.823.998.998 0 00-.752.58c-2.851-.374-5.955.02-8.562 1.476 2.93-.678 5.989-1.304 8.497-1.313l.009-.002a1.005 1.005 0 00-.022.424 1.015 1.015 0 002-.342z" id="path3990" fill="#fff"/><path d="M284.868 427a1.33 1.33 0 00-1.557-1.034 1.324 1.324 0 00-1.031 1.545c-.03-.002-.056-.006-.093-.008-2.11-.083-5.627.478-7.784 3.03 2.213-1.305 5.728-2.645 7.841-2.93.021.002.041 0 .061 0 .18.664.845 1.09 1.531.951a1.327 1.327 0 001.032-1.554z" id="path3992" fill="#fff"/><g id="g3994" fill="#00578e"><g id="g3996"><path d="M434.934 351.54c3.443-1.511 7.389-.818 8.393 1.462 1.004 2.306-1.158 5.676-4.603 7.183-3.466 1.52-7.418.832-8.428-1.472-.997-2.283 1.165-5.651 4.638-7.173zm5.197 11.862c4.357-1.91 6.329-6.772 4.492-10.97-1.842-4.198-6.746-6.02-11.101-4.109-4.358 1.909-6.367 6.762-4.527 10.958 1.843 4.198 6.779 6.033 11.136 4.121z" id="path3998"/><path d="M434.043 374.757l-1.666-6.567 1.016-.259.463 1.835 13.906-3.527-.464-1.836 1.013-.257 2.527 9.948.673-.176.333 1.307-3.839.974-.327-1.28 1.739-.44-1.274-5.021-5.699 1.445.984 3.863 1.642-.415.352 1.297-4.753 1.205-.356-1.298 1.69-.428-.979-3.861-6.376 1.619.408 1.614-1.013.258z" id="path4000"/></g><g id="g4002"><path d="M239.593 357.13l-.599 2.002 8.977 2.676c2.695.805 4.112 2.243 4.463 4.556a8.681 8.681 0 01-.292 3.683c-1.154 3.864-4.025 5.738-7.318 4.757l-9.646-2.874-.54 1.813-1.003-.298 1.996-6.685 1.002.299-.535 1.792 8.902 2.653c2.414.718 3.638.616 4.646-.408a4.723 4.723 0 001.043-1.849c.855-2.863-.344-5.037-3.257-5.91l-8.877-2.646-.59 1.982-1.028-.306 1.651-5.537 1.005.3z" id="path4004"/><path d="M255.369 361.009a1.67 1.67 0 01-2.185.891 1.666 1.666 0 01-.892-2.183 1.664 1.664 0 012.183-.894 1.67 1.67 0 01.894 2.186z" id="path4006"/><path d="M258.474 353.899l-.672 1.195-3.906-2.198.672-1.196 1.605.904c1.333-.537 2.029-1.117 2.628-2.18.756-1.346.5-2.774-.627-3.41-.976-.549-2.024-.309-4.463.978-2.542 1.37-2.908 1.507-3.875 1.704-.937.189-1.963-.017-2.916-.551-2.392-1.344-2.987-3.994-1.496-6.644.476-.847.986-1.447 1.794-2.076l-.649-.367.659-1.171 3.711 2.087-.66 1.172-1.498-.841c-1.099.583-1.645 1.045-2.097 1.849-.634 1.129-.32 2.449.7 3.022.871.49 1.692.295 4.19-1.045 1.212-.631 1.955-1.043 2.265-1.184a5.596 5.596 0 012.156-.53c.904-.035 1.729.174 2.578.649 2.474 1.394 3.195 4.169 1.77 6.712-.708 1.257-1.482 2.025-2.63 2.691l.761.43z" id="path4008"/><path d="M265.001 342.618a1.62 1.62 0 01-1.627 1.633 1.62 1.62 0 01-1.627-1.633c0-.906.721-1.627 1.627-1.627.907 0 1.627.721 1.627 1.627z" id="path4010"/></g><g id="g4012"><path d="M303.542 310.583L293 316.01l-.479-.933 1.682-.864-6.567-12.758-1.683.868-.479-.933 9.122-4.695-.314-.619 1.194-.617 1.812 3.521-1.173.605-.821-1.597-4.606 2.371 2.69 5.229 3.541-1.825-.776-1.504 1.188-.64 2.247 4.362-1.186.639-.799-1.551-3.544 1.824 2.819 5.471 4.805-2.476-.845-1.64 1.194-.613 1.52 2.948z" id="path4014"/><path d="M313.685 306.918l-6.856 2.272-.332-.995 1.799-.594-4.515-13.619-1.797.595-.326-.992 7.163-2.376c2.929-.972 5.436.168 6.335 2.888.854 2.575-.711 5.457-3.478 6.374-.401.133-.671.194-1.323.282l-.385-1.158c.332-.032.452-.072.664-.143 1.607-.533 2.119-1.989 1.42-4.092-.732-2.224-1.992-3.093-3.696-2.529l-1.418.472 4.406 13.287 2.01-.666.329.994z" id="path4016"/><path d="M321.807 297.849l1.416-6.566 3.395 5.731-4.811.835zm12.117 3.535l-1.03.179-8.81-14.624-1.498.259-3.607 16.78-1.524.263.18 1.03 5.079-.88-.178-1.03-1.961.342.903-4.254 5.964-1.035 2.211 3.711-1.717.297.176 1.031 5.99-1.037-.178-1.032z" id="path4018"/><path d="M341.019 287.393l1.571.003c1.771.006 2.791 1.153 2.783 3.146-.002 1.967-1.18 3.335-2.895 3.332l-1.473-.007.014-6.474zm10.109 13.999l-1.022-.002c-.498-.001-.799-.227-1.368-1.1l-3.524-5.439c2.345-.718 3.49-2.157 3.496-4.4.004-1.321-.391-2.392-1.21-3.216-.894-.898-2.091-1.226-4.231-1.23l-7.349-.019v1.046l1.892.004-.033 14.349-1.895-.006-.004 1.047 6.977.017v-1.047l-1.869-.003.015-6.276.675.002 3.72 5.862c.846 1.322 1.095 1.471 2.563 1.476l3.163.006.004-1.071z" id="path4020"/><path d="M362.397 304.438l-7.91-1.337.175-1.031 2.379.402 2.323-13.729-4.251-.718-.344 2.039-1.35-.228.703-4.176 1.357.229-.119.688 11.64 1.969.119-.688 1.347.228-.706 4.176-1.35-.229.346-2.037-4.224-.714-2.319 13.728 2.355.398-.171 1.03z" id="path4022"/><path d="M385.671 312.302l-6.896-2.676.375-.975 1.951.758 3.891-10.034-9.467 9.26-1.318-13.202-3.811 9.824 1.953.756-.379.975-5.365-2.08.377-.976 1.949.758 5.19-13.377-1.951-.756.376-.978 4.112 1.596 1.318 12.933 9.041-8.915 4.596 1.783-.38.974-1.945-.756-5.188 13.374 1.949.758-.378.976z" id="path4024"/><path d="M397.8 320.231l-9.995-6.381.564-.884 1.596 1.021 7.725-12.093-1.597-1.019.562-.88 8.65 5.522.371-.587 1.137.724-2.131 3.338-1.115-.712.969-1.511-4.366-2.789-3.163 4.955 3.354 2.146.916-1.43 1.147.704-2.645 4.136-1.146-.703.938-1.469-3.361-2.145-3.309 5.183 4.555 2.91.992-1.553 1.135.725-1.783 2.792z" id="path4026"/><path d="M287.313 310.042c-2.725-3.714-7.802-4.435-11.594-1.649l-6.263 4.602.617.844 1.525-1.122 8.478 11.54c.405.156.803.306 1.198.455l4.155-3.054c1.969-1.445 2.997-3.034 3.373-5.169.394-2.326-.134-4.599-1.489-6.447zm-3.196 10.879l-1.626 1.195-8.097-11.021 1.706-1.253c2.35-1.727 6.216-.671 8.385 2.279 2.315 3.153 2.164 6.942-.368 8.8z" id="path4028"/><path d="M419.012 316.819l-.705.776 1.454 1.325-7.032 7.712 1.774-13.924-3.661-3.339-.703.772 1.324 1.207-.271 1.477-8.811 9.661-1.525-1.393-.706.772 4.159 3.794.703-.775-1.451-1.325 7.334-8.04-1.566 12.773a283.69 283.69 0 004.9-1.321c.145-.039.279-.08.422-.118l6.268-6.877 1.55 1.408.708-.771-4.165-3.794z" id="path4030"/><path d="M435.778 334.931l-.554.423-7.164-9.382.553-.423-.835-1.091-3.364 2.57.834 1.09 1.642-1.254 2.614 3.424-11.063 8.452-.571-.749a9.456 9.456 0 01-.962.469l4.104 5.367.833-.633-1.453-1.901 11.064-8.452 2.598 3.404-1.643 1.256.836 1.089 3.362-2.571-.831-1.088z" id="path4032"/></g><g id="g4034"><path d="M362.955 505.961l-1.336.293-.965-4.378 1.344-.295.394 1.801c1.286.632 2.18.772 3.374.509 1.509-.329 2.406-1.468 2.131-2.735-.24-1.096-1.119-1.72-3.702-2.685-2.713-.988-3.06-1.164-3.852-1.757-.766-.574-1.294-1.476-1.526-2.543-.59-2.678.996-4.889 3.965-5.54.947-.206 1.736-.224 2.744-.042l-.16-.727 1.313-.287.914 4.161-1.314.287-.369-1.678c-1.168-.434-1.873-.534-2.773-.339-1.266.277-2.047 1.393-1.792 2.538.215.971.906 1.458 3.566 2.43 1.28.487 2.082.767 2.391.903a5.552 5.552 0 011.831 1.258c.629.656 1.021 1.409 1.23 2.361.605 2.77-.984 5.16-3.837 5.782-1.408.309-2.493.241-3.755-.173l.184.856z" id="path4036"/><path d="M388.278 497.996l-11.034 4.334-.381-.973 1.759-.691-5.242-13.358-1.764.695-.382-.974 9.557-3.754-.26-.649 1.254-.493 1.448 3.69-1.229.483-.652-1.67-4.827 1.896 2.149 5.468 3.708-1.456-.617-1.576 1.245-.516 1.791 4.568-1.24.515-.637-1.622-3.715 1.456 2.248 5.726 5.035-1.973-.678-1.717 1.254-.489 1.21 3.08z" id="path4038"/><path d="M404.881 487.886c-1.408 1.759-2.395 2.68-4.016 3.66-4.493 2.726-9.525 1.637-12.096-2.599-2.544-4.196-1.246-9.267 3.039-11.861 1.379-.84 2.451-1.23 4.013-1.444l-.542-.896 1.17-.713 2.313 3.813-1.171.713-.826-1.365c-1.732-.118-2.557.063-3.688.747-2.957 1.799-3.523 5.519-1.383 9.054 2.096 3.452 5.998 4.755 8.94 2.971 1.066-.646 1.689-1.345 2.314-2.569l-.98-1.617 1.193-.723 1.72 2.829z" id="path4040"/><path d="M412.373 462.177l-1.545 1.41 6.314 6.921c1.898 2.079 2.369 4.04 1.479 6.201a8.677 8.677 0 01-2.146 3.003c-2.979 2.726-6.407 2.849-8.728.31l-6.783-7.435-1.396 1.276-.703-.771 5.148-4.703.705.772-1.383 1.258 6.266 6.868c1.697 1.855 2.802 2.4 4.192 2.044a4.719 4.719 0 001.847-1.048c2.207-2.015 2.303-4.496.256-6.742l-6.246-6.846-1.53 1.396-.722-.795 4.27-3.894.705.775z" id="path4042"/><path d="M440.35 447.649l-3.326 6.133-.918-.5.902-1.667-12.613-6.832-.906 1.664-.914-.501 3.318-6.133.918.501-.89 1.643 12.616 6.835.893-1.64.92.497z" id="path4044"/><path d="M446.711 432.74l-2.824 7.505-.977-.368.85-2.26-13.029-4.907-1.521 4.033 1.936.727-.48 1.284-3.965-1.494.481-1.281.653.246 4.161-11.049-.653-.246.482-1.281 3.967 1.491-.484 1.282-1.934-.728-1.51 4.009 13.029 4.907.838-2.236.98.366z" id="path4046"/><path d="M451.125 414.414l-1.338 6.846-1.029-.2.36-1.836-6.747-1.319-8.281 3.411-.301 1.539-1.025-.202 1.334-6.844 1.03.202-.355 1.807 6.032-2.423-4.721-4.299-.404 2.076-1.023-.2 1.112-5.694 1.022.202-.34 1.759 5.898 5.388 7.383 1.446.364-1.858 1.029.199z" id="path4048"/><path d="M434.353 456.626l-.609.822c-.297.398-.653.507-1.699.445l-6.47-.399c.819-2.308.34-4.091-1.457-5.428-1.061-.788-2.158-1.105-3.309-.937-1.256.186-2.229.952-3.506 2.674l-4.377 5.898.834.624 1.133-1.52 11.521 8.554-1.131 1.519.84.624 4.16-5.598-.842-.624-1.111 1.5-5.041-3.746.4-.536 6.926.489c1.564.106 1.832-.006 2.712-1.185l1.889-2.54-.863-.636zm-17.263-.189l.932-1.26c1.057-1.423 2.588-1.56 4.186-.371 1.576 1.175 1.979 2.928.959 4.311l-.877 1.179-5.2-3.859z" id="path4050"/></g><g id="g4052"><path d="M236.968 429.822l-1.656-6.773 1.016-.25.444 1.816 6.364-1.555-1.922-7.865-6.365 1.555.445 1.814-1.016.248-1.656-6.773 1.018-.25.447 1.843 13.939-3.408-.448-1.841 1.015-.245 1.655 6.771-1.016.248-.442-1.813-6.147 1.502 1.922 7.862 6.147-1.501-.445-1.813 1.019-.252 1.655 6.777-1.019.248-.446-1.838-13.94 3.406.454 1.842-1.022.245z" id="path4054"/><path d="M246.462 433.613c3.423-1.561 7.377-.924 8.412 1.342 1.042 2.291-1.074 5.69-4.5 7.254-3.445 1.566-7.4.929-8.444-1.355-1.03-2.272 1.084-5.666 4.532-7.241zm5.371 11.787c4.327-1.971 6.233-6.863 4.333-11.031-1.9-4.171-6.833-5.922-11.16-3.949-4.329 1.973-6.269 6.852-4.366 11.022 1.897 4.169 6.862 5.935 11.193 3.958z" id="path4056"/><path d="M258.163 469.063l-4.347-5.988.847-.611 1.23 1.691 8.708-6.319-12.975 2.644 6.044-11.805-8.525 6.188 1.231 1.693-.847.618-3.381-4.657.846-.614 1.232 1.689 11.606-8.429-1.226-1.69.845-.617 2.589 3.565-5.902 11.586 12.431-2.599 2.899 3.995-.847.616-1.229-1.694-11.613 8.43 1.233 1.697-.849.611z" id="path4058"/><path d="M271.119 481.803l-8.72-8.032.71-.771 1.394 1.282 9.724-10.549-1.393-1.282.707-.771 7.551 6.956.47-.515.993.913-2.686 2.911-.969-.893 1.212-1.319-3.81-3.513-3.982 4.321 2.93 2.703 1.148-1.246 1.004.889-3.327 3.613-1.007-.89 1.183-1.288-2.931-2.699-4.168 4.523 3.974 3.664 1.249-1.355.989.91-2.245 2.438z" id="path4060"/><path d="M285.952 491.977l-9.757-6.563.586-.873 1.573 1.063 8.008-11.908-1.573-1.058.585-.866 5.787 3.893-.583.869-1.551-1.042-7.774 11.555 4.402 2.962 1.032-1.533 1.114.754-1.849 2.747z" id="path4062"/><path d="M295.89 489.855l4.873-4.625-.428 6.648-4.445-2.023zm8.017 9.754l-.953-.436.971-17.045-1.384-.629-12.443 11.824-1.403-.641-.434.953 4.691 2.137.433-.955-1.814-.824 3.145-3.002 5.512 2.506-.267 4.314-1.586-.719-.433.947 5.528 2.518.437-.948z" id="path4064"/><path d="M321.142 505.486l-1.695-.408-5.591-13.891-2.532 10.586 1.914.459-.243 1.02-5.476-1.313.243-1.018 2.013.48 3.045-12.715-.482-1.424-1.743-.415.244-1.021 4.823 1.156 5.172 13.045 2.433-10.15-1.916-.457.247-1.018 5.474 1.311-.245 1.016-2.035-.486-3.65 15.243z" id="path4066"/><path d="M337.312 490.287l-7.765-.279-.041 1.045 1.893.067-.513 14.337h-.004l-1.894-.066-.036 1.049 7.74.277-.019-.004h.022c2.44.089 4.233-.52 5.853-1.96 1.752-1.579 2.749-3.688 2.834-5.979.167-4.602-3.367-8.318-8.07-8.487zm4.561 8.364c-.14 3.907-2.609 6.784-5.747 6.671l-2.019-.072.49-13.666 2.114.076c2.914.105 5.29 3.331 5.162 6.991z" id="path4068"/></g></g></g><path d="M279.485 401.119c-4.756 2.082-6.963 8.008-4.529 12.357 2.227-3.165 6.42-3.853 4.529-12.357zm-4.513 12.129c-.572-2.391.922-8.758 3.055-10.066-1.383 3.088-1.952 5.949-3.055 10.066z" id="path4070" fill="#fff"/><path d="M274.649 392.219c-1.523.623-3.68 2.736-4.646 5.523.375.434.693.893.969 1.365.535-2.045 1.686-4.418 2.848-5.426-.762 1.299-1.822 4.166-2.344 6.43a8.98 8.98 0 01.732 3.809c2.908-2.656 3.914-7.258 2.441-11.701z" id="path4072" fill="#fff"/></g></g></svg>